<svg width="26" height="27" viewBox="0 0 26 27" fill="none" xmlns="http://www.w3.org/2000/svg">
<path d="M13 8.57028C12.0358 8.57028 11.0933 8.85907 10.2916 9.40013C9.48991 9.94119 8.86507 10.7102 8.49609 11.61C8.12711 12.5097 8.03057 13.4998 8.21867 14.4549C8.40678 15.4101 8.87108 16.2875 9.55286 16.9761C10.2346 17.6647 11.1033 18.1337 12.0489 18.3237C12.9946 18.5137 13.9748 18.4162 14.8656 18.0435C15.7564 17.6708 16.5177 17.0397 17.0534 16.2299C17.5891 15.4202 17.875 14.4682 17.875 13.4943C17.875 12.1884 17.3614 10.9359 16.4471 10.0125C15.5329 9.08906 14.2929 8.57028 13 8.57028ZM13 17.5977C12.1965 17.5977 11.4111 17.357 10.743 16.9061C10.0749 16.4552 9.55422 15.8144 9.24674 15.0646C8.93926 14.3148 8.85881 13.4898 9.01556 12.6938C9.17231 11.8978 9.55923 11.1667 10.1274 10.5928C10.6955 10.0189 11.4194 9.62813 12.2074 9.4698C12.9955 9.31147 13.8123 9.39273 14.5547 9.7033C15.297 10.0139 15.9315 10.5398 16.3778 11.2146C16.8242 11.8894 17.0625 12.6827 17.0625 13.4943C17.0625 14.5826 16.6345 15.6263 15.8726 16.3958C15.1108 17.1653 14.0774 17.5977 13 17.5977Z" fill="black" fill-opacity="0.6"/>
<path d="M15.0312 13.084H13.4062V11.4426C13.4062 11.3338 13.3634 11.2294 13.2873 11.1525C13.2111 11.0755 13.1077 11.0323 13 11.0323C12.8923 11.0323 12.7889 11.0755 12.7127 11.1525C12.6366 11.2294 12.5938 11.3338 12.5938 11.4426V13.084H10.9688C10.861 13.084 10.7577 13.1272 10.6815 13.2041C10.6053 13.2811 10.5625 13.3855 10.5625 13.4943C10.5625 13.6031 10.6053 13.7075 10.6815 13.7844C10.7577 13.8614 10.861 13.9046 10.9688 13.9046H12.5938V15.546C12.5938 15.6548 12.6366 15.7592 12.7127 15.8361C12.7889 15.9131 12.8923 15.9563 13 15.9563C13.1077 15.9563 13.2111 15.9131 13.2873 15.8361C13.3634 15.7592 13.4062 15.6548 13.4062 15.546V13.9046H15.0312C15.139 13.9046 15.2423 13.8614 15.3185 13.7844C15.3947 13.7075 15.4375 13.6031 15.4375 13.4943C15.4375 13.3855 15.3947 13.2811 15.3185 13.2041C15.2423 13.1272 15.139 13.084 15.0312 13.084Z" fill="black" fill-opacity="0.6"/>
<path d="M19.0938 2.00495H9.34378C9.29303 1.99274 9.24016 1.99274 9.18941 2.00495C9.13871 2.02244 9.09374 2.05367 9.05941 2.09522L4.99691 6.19857C4.93818 6.23682 4.89494 6.29504 4.87503 6.3627C4.86294 6.41396 4.86294 6.46737 4.87503 6.51863V22.932C4.87503 23.4762 5.08904 23.998 5.46997 24.3828C5.85091 24.7675 6.36756 24.9837 6.90628 24.9837H19.0938C19.6325 24.9837 20.1492 24.7675 20.5301 24.3828C20.911 23.998 21.125 23.4762 21.125 22.932V4.05662C21.125 3.51248 20.911 2.99063 20.5301 2.60587C20.1492 2.2211 19.6325 2.00495 19.0938 2.00495V2.00495ZM8.93753 3.40829V4.87729C8.93753 5.20377 8.80913 5.51688 8.58057 5.74774C8.35201 5.9786 8.04202 6.1083 7.71878 6.1083H6.26441L8.93753 3.40829ZM20.3125 22.932C20.3125 23.2585 20.1841 23.5716 19.9556 23.8025C19.727 24.0333 19.417 24.163 19.0938 24.163H6.90628C6.58305 24.163 6.27306 24.0333 6.0445 23.8025C5.81594 23.5716 5.68753 23.2585 5.68753 22.932V6.92897H7.71878C7.98553 6.92897 8.24967 6.8759 8.49611 6.77279C8.74255 6.66969 8.96647 6.51856 9.15509 6.32804C9.34371 6.13753 9.49333 5.91135 9.59541 5.66243C9.69749 5.41351 9.75003 5.14672 9.75003 4.87729V2.82562H19.0938C19.417 2.82562 19.727 2.95531 19.9556 3.18617C20.1841 3.41703 20.3125 3.73014 20.3125 4.05662V22.932Z" fill="black" fill-opacity="0.6"/>
</svg>
