<svg width="24" height="24" viewBox="0 0 24 24" fill="none" xmlns="http://www.w3.org/2000/svg">
<path d="M21.9866 12.9985C21.7352 17.8472 17.8482 21.7341 12.9995 21.9856V23.4985C12.9995 23.7746 12.7757 23.9985 12.4995 23.9985C12.2234 23.9985 11.9995 23.7746 11.9995 23.4985V21.9856C7.15081 21.7341 3.26386 17.8472 3.01244 12.9985H1.49951C1.22337 12.9985 0.999512 12.7746 0.999512 12.4985C0.999512 12.2224 1.22337 11.9985 1.49951 11.9985H3.01244C3.26386 7.1498 7.15081 3.26286 11.9995 3.01144V1.4985C11.9995 1.22236 12.2234 0.998505 12.4995 0.998505C12.7757 0.998505 12.9995 1.22236 12.9995 1.4985V3.01144C17.8482 3.26286 21.7352 7.1498 21.9866 11.9985H23.4995C23.7757 11.9985 23.9995 12.2224 23.9995 12.4985C23.9995 12.7746 23.7757 12.9985 23.4995 12.9985H21.9866ZM12.4995 20.9985C17.1939 20.9985 20.9995 17.1929 20.9995 12.4985C20.9995 7.80408 17.1939 3.9985 12.4995 3.9985C7.80509 3.9985 3.99951 7.80408 3.99951 12.4985C3.99951 17.1929 7.80509 20.9985 12.4995 20.9985ZM12.4995 16.9985C10.0142 16.9985 7.99951 14.9838 7.99951 12.4985C7.99951 10.0132 10.0142 7.9985 12.4995 7.9985C14.9848 7.9985 16.9995 10.0132 16.9995 12.4985C16.9995 14.9838 14.9848 16.9985 12.4995 16.9985ZM12.4995 15.9985C14.4325 15.9985 15.9995 14.4315 15.9995 12.4985C15.9995 10.5655 14.4325 8.9985 12.4995 8.9985C10.5665 8.9985 8.99951 10.5655 8.99951 12.4985C8.99951 14.4315 10.5665 15.9985 12.4995 15.9985Z" fill="black" fill-opacity="0.6"/>
</svg>
