<svg width="22" height="20" viewBox="0 0 22 20" fill="none" xmlns="http://www.w3.org/2000/svg">
<path d="M11.8876 10.0293L17.5934 4.61551C17.722 4.49348 17.722 4.29562 17.5934 4.17359C17.4648 4.05156 17.2563 4.05156 17.1276 4.17359L11.4219 9.58734L5.71609 4.17355C5.58748 4.05152 5.37895 4.05152 5.25034 4.17355C5.12169 4.29559 5.12169 4.49344 5.25034 4.61547L10.9561 10.0293L5.2503 15.4431C5.12165 15.5652 5.12165 15.763 5.2503 15.885C5.31461 15.9461 5.39888 15.9766 5.48319 15.9766C5.56751 15.9766 5.65178 15.9461 5.71609 15.885L11.4219 10.4712L17.1276 15.885C17.192 15.9461 17.2762 15.9766 17.3605 15.9766C17.4448 15.9766 17.5291 15.9461 17.5934 15.885C17.722 15.763 17.722 15.5652 17.5934 15.4431L11.8876 10.0293Z" fill="black" fill-opacity="0.6"/>
</svg>
