<svg width="40" height="45" viewBox="0 0 40 45" fill="none" xmlns="http://www.w3.org/2000/svg">
<path d="M3.20608 29.9433C2.90842 29.9433 2.641 29.7174 2.56459 29.3837C2.47873 29.0092 2.66069 28.623 2.98397 28.4933L6.67397 27.0141C6.71865 26.9967 6.76506 26.9835 6.81233 26.9763L20.5525 24.9842L5.90459 25.7916C5.54475 25.8061 5.23647 25.5045 5.21053 25.1009C5.19303 24.8269 5.30897 24.5762 5.49686 24.4305L2.59819 23.9948C2.23522 23.9395 1.98029 23.5649 2.02889 23.1554C2.07779 22.7477 2.41553 22.4599 2.77436 22.5153L5.93912 22.9922L21.3769 22.6377L36.4701 21.0224C36.8426 20.9729 37.1586 21.2846 37.1936 21.6942C37.2278 22.1044 36.9611 22.4688 36.5958 22.5074L35.4832 22.6268C35.5349 22.7048 35.5731 22.7959 35.5945 22.896C35.6683 23.2356 35.5219 23.5867 35.2435 23.7412L33.8329 24.5223C33.7668 24.5587 33.6968 24.582 33.6243 24.5937L27.3744 25.5001L3.31389 29.9331C3.27764 29.9403 3.2417 29.9433 3.20608 29.9433Z" fill="#231F20"/>
<path d="M25.7279 31.1746C25.5006 31.1746 25.2797 31.0435 25.1561 30.8088C24.9741 30.4621 25.0698 30.0147 25.3717 29.799L35 22.9222C29.1633 19.9258 25.3069 17.9673 24.7015 17.6918C24.5758 17.6591 24.4572 17.5862 24.3665 17.4849C24.2933 17.4026 24.2396 17.3049 24.2073 17.1993C24.0875 16.9894 23.5765 16.1348 23.1165 15.3793C22.9469 15.1001 22.9657 14.7271 23.1619 14.4707C23.3588 14.2149 23.684 14.1405 23.9546 14.287L37.3899 21.6352C37.6062 21.7533 37.7486 21.9944 37.7616 22.264C37.7694 22.4075 37.7396 22.5474 37.68 22.6683C37.8562 22.7995 37.9688 23.0214 37.9766 23.2634C37.9856 23.5461 37.8522 23.8098 37.6321 23.9454L26.0459 31.083C25.9449 31.1454 25.8354 31.1746 25.7279 31.1746Z" fill="#231F20"/>
<path d="M23.665 33.8822C23.426 33.8822 23.1956 33.7365 23.077 33.483C22.9067 33.1173 23.0324 32.6668 23.3561 32.4745L35.9391 25.0497L23.2252 12.4239C22.9506 12.1506 22.9247 11.6792 23.167 11.3702C23.4092 11.0613 23.8289 11.0314 24.1035 11.3047L37.5387 24.6476C37.7019 24.8093 37.7841 25.0527 37.7576 25.2961C37.7317 25.5394 37.6009 25.7536 37.4079 25.8673L23.9726 33.7961C23.8742 33.8545 23.7687 33.8822 23.665 33.8822Z" fill="#231F20"/>
</svg>
