<svg width="41" height="40" viewBox="0 0 41 40" fill="none" xmlns="http://www.w3.org/2000/svg">
<path fill-rule="evenodd" clip-rule="evenodd" d="M4.58105 2H36.9818C38.0864 2 38.9818 2.89543 38.9818 4V25.2714L26.1541 22.3079C25.2683 22.1033 24.3622 22 23.4531 22H18.1091C17.2 22 16.2938 22.1033 15.408 22.3079L2.58105 25.2712V4C2.58105 2.89543 3.47649 2 4.58105 2ZM0.581055 4C0.581055 1.79086 2.37192 0 4.58105 0H36.9818C39.191 0 40.9818 1.79086 40.9818 4V36C40.9818 38.2091 39.191 40 36.9818 40H4.58105C2.37192 40 0.581055 38.2091 0.581055 36V4ZM15.2724 10.9091C15.2724 12.9174 13.628 14.5455 11.5996 14.5455C9.57114 14.5455 7.92677 12.9174 7.92677 10.9091C7.92677 8.90079 9.57114 7.27274 11.5996 7.27274C13.628 7.27274 15.2724 8.90079 15.2724 10.9091Z" fill="#CDCDCD"/>
</svg>
