<svg width="32" height="32" viewBox="0 0 32 32" fill="none" xmlns="http://www.w3.org/2000/svg">
<path fill-rule="evenodd" clip-rule="evenodd" d="M21.7785 2.66663C26.2972 2.66663 29.3332 5.83729 29.3332 10.5546V21.4453C29.3332 26.1626 26.2972 29.3333 21.7758 29.3333H10.2185C5.70117 29.3333 2.6665 26.1626 2.6665 21.4453V10.5546C2.6665 5.83729 5.70117 2.66663 10.2185 2.66663H21.7785ZM21.7785 4.66663H10.2185C6.8465 4.66663 4.6665 6.97729 4.6665 10.5546V21.4453C4.6665 25.0226 6.8465 27.3333 10.2185 27.3333H21.7758C25.1518 27.3333 27.3332 25.0226 27.3332 21.4453V10.5546C27.3332 6.97729 25.1518 4.66663 21.7785 4.66663ZM11.7822 12.5312C13.3493 12.5322 14.6738 13.5733 15.1042 14.9985L22.6794 14.9993C23.2314 14.9993 23.6794 15.4473 23.6794 15.9993V18.47C23.6794 19.022 23.2314 19.47 22.6794 19.47C22.1274 19.47 21.6794 19.022 21.6794 18.47V16.9993L19.9078 16.9986L19.9085 18.47C19.9085 19.022 19.4605 19.47 18.9085 19.47C18.3565 19.47 17.9085 19.022 17.9085 18.47L17.9078 16.9986L15.1048 16.9999C14.6746 18.4268 13.3481 19.4698 11.7822 19.4698C9.8689 19.4698 8.3129 17.9125 8.3129 16.0005C8.3129 14.0872 9.8689 12.5312 11.7822 12.5312ZM11.7849 14.5312C10.9716 14.5312 10.3129 15.1898 10.3129 16.0005C10.3129 16.8112 10.9716 17.4698 11.7822 17.4698C12.5916 17.4698 13.2516 16.8112 13.2516 16.0005C13.2516 15.1912 12.5929 14.5325 11.7849 14.5312Z" fill="black" fill-opacity="0.6"/>
</svg>
