<svg width="29" height="32" viewBox="0 0 29 32" fill="none" xmlns="http://www.w3.org/2000/svg">
<path d="M1.2198 17.3521H5.54858C6.22106 17.3521 6.76842 16.8976 6.76842 16.2257C6.76842 15.5543 6.22148 15.0987 5.54858 15.0987H1.21914C0.546897 15.0987 0 15.5541 0 16.2257C0 16.8976 0.547367 17.3521 1.2198 17.3521ZM1.2198 16H5.54792C5.72371 16 5.86699 16.0505 5.86699 16.2256C5.86699 16.4007 5.72413 16.4507 5.54858 16.4507H1.2198C1.04425 16.4507 0.901383 16.4007 0.901383 16.2256C0.901383 16.0505 1.04472 16 1.2198 16Z" fill="black" fill-opacity="0.6"/>
<path d="M6.76848 22.7607C6.76848 22.0895 6.22153 21.6338 5.54863 21.6338H1.21896C0.546945 21.6338 0 22.0896 0 22.7607C0 23.433 0.547368 23.8873 1.21985 23.8873H5.54863C6.22111 23.8873 6.76848 23.433 6.76848 22.7607ZM0.901431 22.7607C0.901431 22.5856 1.04477 22.5351 1.21985 22.5351H5.54774C5.72376 22.5351 5.86705 22.5856 5.86705 22.7607C5.86705 22.9358 5.72418 22.9859 5.54863 22.9859H1.21985C1.0443 22.9859 0.901431 22.9361 0.901431 22.7607Z" fill="black" fill-opacity="0.6"/>
<path d="M1.21985 10.3662H5.54863C5.5491 10.3662 5.54957 10.3662 5.54999 10.3662C6.22177 10.3662 6.76848 9.90961 6.76848 9.23943C6.76848 8.56879 6.22177 8.11267 5.54863 8.11267H1.21872C0.54671 8.11267 0 8.56879 0 9.23943C4.69642e-05 9.90961 0.546757 10.3662 1.21985 10.3662ZM1.21985 9.01405H5.5475C5.72371 9.01405 5.86705 9.06431 5.86705 9.23939C5.86705 9.41405 5.72371 9.46472 5.54774 9.46472H1.22121C1.045 9.46472 0.901431 9.41423 0.901431 9.23939C0.901431 9.06454 1.045 9.01405 1.21985 9.01405Z" fill="black" fill-opacity="0.6"/>
<path d="M23.9207 0H6.50531C4.12494 0 1.69971 2.35333 1.69971 4.73394V7.2561C1.69971 7.5051 1.99018 7.66196 2.23918 7.66196H5.5487C6.38339 7.66196 7.06264 8.40451 7.06264 9.23921C7.0624 10.0732 6.38297 10.8169 5.54847 10.8169H2.23918C1.99042 10.8169 1.69971 10.9363 1.69971 11.1853V14.2701C1.69971 14.5192 1.99018 14.6478 2.23918 14.6478H5.5487C6.38339 14.6478 7.06264 15.3906 7.06264 16.2254C7.06264 17.0592 6.38321 17.8028 5.5487 17.8028H2.23918C1.99042 17.8028 1.69971 17.9497 1.69971 18.1987V20.8162C1.69971 21.0652 1.99018 21.183 2.23918 21.183H5.5487C6.38339 21.183 7.06264 21.9258 7.06264 22.7606C7.06264 23.5944 6.38321 24.338 5.5487 24.338H2.23918C1.99042 24.338 1.69971 24.4957 1.69971 24.7448V27.2664C1.69971 29.6469 4.12494 32 6.50531 32H23.9207C26.3018 32 28.7419 29.6469 28.7419 27.2664V4.73394C28.7419 2.35333 26.302 0 23.9207 0ZM27.8405 27.2664C27.8405 29.1563 25.8112 31.0985 23.9207 31.0985H6.50531C4.61529 31.0985 2.60109 29.1563 2.60109 27.2664V25.2394H5.54894C6.88032 25.2394 7.96378 24.0911 7.96378 22.7606C7.96378 21.4289 6.88032 20.2817 5.54847 20.2817H2.60109V18.7042H5.54894C6.88056 18.7042 7.96378 17.5556 7.96378 16.2254C7.96378 14.8938 6.88032 13.7465 5.54847 13.7465H2.60109V11.7183H5.54894C6.88056 11.7183 7.96378 10.5697 7.96378 9.23921C7.96378 7.90759 6.88032 6.76058 5.54847 6.76058H2.60109V4.73399C2.60109 2.84396 4.61529 0.90143 6.50531 0.90143H23.9207C25.8112 0.90143 27.8405 2.84396 27.8405 4.73399V27.2664Z" fill="black" fill-opacity="0.6"/>
<path d="M21.1331 19.2651C20.8665 18.8035 20.3683 18.5167 19.8328 18.5167C19.5712 18.5167 19.3129 18.5859 19.0864 18.7166C18.6749 18.9539 18.368 19.0823 17.9261 19.0823C17.8199 19.0823 17.7063 19.0744 17.5891 19.0589C16.96 18.9749 16.0998 18.1349 15.3971 16.9196C14.7049 15.7205 14.383 14.4923 14.6152 13.9317C14.8791 13.2903 15.2329 13.0476 15.668 12.797C16.3835 12.3851 16.6305 11.4674 16.2181 10.7508L15.1712 8.93923C14.909 8.48312 14.4379 8.21068 13.9105 8.21068C13.6437 8.21068 13.378 8.28258 13.1425 8.41868L12.4863 8.79684C11.5998 9.30884 11.3266 10.222 11.1637 11.1313C10.8162 13.0389 11.4744 15.5054 13.0672 18.2648C14.6375 20.9821 16.4928 22.834 18.2922 23.4804C18.8756 23.6895 19.3766 23.7908 19.823 23.7908C20.2555 23.7908 20.6433 23.6933 20.9762 23.5011L21.6304 23.1229C22.3454 22.7105 22.5918 21.7931 22.1793 21.0772L21.1331 19.2651ZM21.1799 22.3422L20.5253 22.7206C20.0857 22.9748 19.4718 22.9453 18.5968 22.6316C17.0214 22.0659 15.2904 20.3098 13.8482 17.8138C12.3636 15.2423 11.7421 12.9872 12.051 11.2914C12.2241 10.3265 12.4724 9.84578 12.9368 9.57785L13.5931 9.19946C13.6922 9.14221 13.8022 9.11201 13.9108 9.11201C14.1143 9.11201 14.289 9.21252 14.3904 9.3892L15.4376 11.201C15.6019 11.4863 15.5034 11.8519 15.2181 12.0159C14.6948 12.3174 14.1526 12.6872 13.7821 13.5877C13.4293 14.44 13.7409 15.8541 14.6168 17.3705C15.4795 18.8637 16.5463 19.8289 17.4707 19.9524C17.6276 19.9731 17.7809 19.9837 17.9262 19.9837C18.634 19.9837 19.1099 19.7435 19.5368 19.4974C19.6264 19.4458 19.729 19.4181 19.8326 19.4181C20.0469 19.4181 20.2462 19.5324 20.3523 19.7158L21.3986 21.5272C21.563 21.8122 21.465 22.1778 21.1799 22.3422Z" fill="black" fill-opacity="0.6"/>
</svg>
