<svg width="24" height="24" viewBox="0 0 24 24" fill="none" xmlns="http://www.w3.org/2000/svg">
<path fill-rule="evenodd" clip-rule="evenodd" d="M19 7.17071C20.1652 7.58254 21 8.69378 21 10C21 11.3062 20.1652 12.4175 19 12.8293V19C19 19.5523 18.5523 20 18 20C17.4477 20 17 19.5523 17 19V12.8293C15.8348 12.4175 15 11.3062 15 10C15 8.69378 15.8348 7.58254 17 7.17071V5C17 4.44772 17.4477 4 18 4C18.5523 4 19 4.44772 19 5V7.17071ZM15 15C15 16.3062 14.1652 17.4175 13 17.8293V19C13 19.5523 12.5523 20 12 20C11.4477 20 11 19.5523 11 19V17.8293C9.83481 17.4175 9 16.3062 9 15C9 13.6938 9.83481 12.5825 11 12.1707V5C11 4.44772 11.4477 4 12 4C12.5523 4 13 4.44772 13 5V12.1707C14.1652 12.5825 15 13.6938 15 15ZM7 7.17071C8.16519 7.58254 9 8.69378 9 10C9 11.3062 8.16519 12.4175 7 12.8293V19C7 19.5523 6.55228 20 6 20C5.44772 20 5 19.5523 5 19V12.8293C3.83481 12.4175 3 11.3062 3 10C3 8.69378 3.83481 7.58254 5 7.17071V5C5 4.44772 5.44772 4 6 4C6.55228 4 7 4.44772 7 5V7.17071ZM6 11C6.55228 11 7 10.5523 7 10C7 9.44772 6.55228 9 6 9C5.44772 9 5 9.44772 5 10C5 10.5523 5.44772 11 6 11ZM18 11C18.5523 11 19 10.5523 19 10C19 9.44772 18.5523 9 18 9C17.4477 9 17 9.44772 17 10C17 10.5523 17.4477 11 18 11ZM12 16C12.5523 16 13 15.5523 13 15C13 14.4477 12.5523 14 12 14C11.4477 14 11 14.4477 11 15C11 15.5523 11.4477 16 12 16Z" fill="white" fill-opacity="0.6"/>
</svg>
