<svg width="32" height="32" viewBox="0 0 32 32" fill="none" xmlns="http://www.w3.org/2000/svg">
<path d="M16.0006 2.99939C13.9725 2.99975 11.9727 3.4746 10.161 4.38597C8.34924 5.29733 6.77586 6.61994 5.56662 8.24804C4.35738 9.87615 3.54583 11.7646 3.19685 13.7624C2.84786 15.7602 2.97113 17.8119 3.5568 19.7536C4.14247 21.6952 5.17428 23.4729 6.56975 24.9445C7.96522 26.4161 9.68564 27.5408 11.5935 28.2287C13.5013 28.9166 15.5436 29.1486 17.5571 28.9062C19.5706 28.6637 21.4995 27.9535 23.1894 26.8324C23.41 26.6854 23.5632 26.4569 23.6153 26.1971C23.6675 25.9372 23.6144 25.6673 23.4676 25.4466C23.3209 25.2259 23.0926 25.0725 22.8328 25.02C22.573 24.9676 22.303 25.0204 22.0821 25.1669C20.0399 26.522 17.6036 27.1564 15.1597 26.9693C12.7159 26.7821 10.4046 25.7843 8.59245 24.134C6.78031 22.4837 5.57118 20.2755 5.15691 17.8598C4.74263 15.4441 5.14694 12.9592 6.30568 10.7995C7.46442 8.63971 9.31122 6.92875 11.5531 5.93808C13.7949 4.9474 16.3034 4.73376 18.6804 5.33104C21.0575 5.92831 23.1671 7.30231 24.6744 9.23501C26.1817 11.1677 27.0004 13.5484 27.0006 15.9994C27.0006 19.3054 25.6411 19.9994 24.5006 19.9994C23.3601 19.9994 22.0006 19.3054 22.0006 15.9994V10.9994C22.0006 10.7342 21.8952 10.4798 21.7077 10.2923C21.5202 10.1047 21.2658 9.99939 21.0006 9.99939C20.7354 9.99939 20.481 10.1047 20.2935 10.2923C20.106 10.4798 20.0006 10.7342 20.0006 10.9994V11.532C19.1032 10.7275 17.9843 10.212 16.7897 10.0525C15.5951 9.89296 14.3801 10.0969 13.3031 10.6378C12.2261 11.1787 11.3369 12.0314 10.7514 13.0848C10.1659 14.1383 9.91122 15.3436 10.0206 16.5439C10.1299 17.7441 10.5982 18.8836 11.3644 19.8139C12.1306 20.7442 13.1592 21.4222 14.3162 21.7596C15.4733 22.0969 16.7051 22.078 17.8512 21.7053C18.9973 21.3325 20.0047 20.6233 20.7419 19.6699C21.4924 21.1672 22.7856 21.9994 24.5006 21.9994C27.3183 21.9994 29.0006 19.7563 29.0006 15.9994C28.9967 12.5528 27.6258 9.24844 25.1887 6.81131C22.7516 4.37418 19.4472 3.00329 16.0006 2.99939ZM16.0006 19.9994C15.2095 19.9994 14.4361 19.7648 13.7783 19.3253C13.1205 18.8857 12.6078 18.261 12.3051 17.5301C12.0023 16.7992 11.9231 15.995 12.0775 15.219C12.2318 14.4431 12.6128 13.7304 13.1722 13.171C13.7316 12.6116 14.4443 12.2306 15.2202 12.0762C15.9962 11.9219 16.8004 12.0011 17.5313 12.3039C18.2622 12.6066 18.887 13.1193 19.3265 13.7771C19.766 14.4349 20.0006 15.2083 20.0006 15.9994C19.9994 17.0599 19.5776 18.0766 18.8277 18.8265C18.0778 19.5764 17.0611 19.9982 16.0006 19.9994Z" fill="black" fill-opacity="0.6"/>
</svg>
