<svg width="24" height="27" viewBox="0 0 24 27" fill="none" xmlns="http://www.w3.org/2000/svg">
<path d="M21.226 23.4452H2.77361C1.24399 23.4452 0 22.109 0 20.4659V8.38321C0 6.74014 1.24399 5.40389 2.77361 5.40389H6.53881L6.86838 4.20964C7.00289 3.55615 7.55903 3.07651 8.21315 3.07651H15.7869C16.4226 3.07651 16.9851 3.55368 17.134 4.21559L17.1428 4.25631L17.4432 5.40381H21.2264C22.756 5.40381 24 6.74007 24 8.38313V20.4658C23.9996 22.109 22.7551 23.4452 21.226 23.4452ZM2.77361 6.39702C1.75382 6.39702 0.92456 7.28786 0.92456 8.38321V20.4658C0.92456 21.5613 1.75389 22.452 2.77361 22.452H21.226C22.2458 22.452 23.075 21.5612 23.075 20.4658V8.38321C23.075 7.28778 22.2457 6.39702 21.226 6.39702H16.7429L16.2368 4.45796C16.1901 4.23251 16.001 4.06918 15.7865 4.06918H8.21264C7.99492 4.06918 7.80999 4.22903 7.76237 4.4585L7.22802 6.39702H2.77361ZM12.0005 20.4435C8.76512 20.4435 6.13292 17.6166 6.13292 14.1417C6.13292 10.6664 8.76505 7.83951 12.0005 7.83951C15.235 7.83951 17.8667 10.6669 17.8667 14.1417C17.8666 17.6162 15.235 20.4435 12.0005 20.4435ZM12.0005 8.83211C9.27494 8.83211 7.05748 11.2136 7.05748 14.1413C7.05748 17.069 9.27502 19.4499 12.0005 19.4499C14.7256 19.4499 16.9422 17.0685 16.9422 14.1413C16.9421 11.2136 14.7251 8.83211 12.0005 8.83211ZM20.6292 8.2402C20.1577 8.2402 19.7763 8.65085 19.7763 9.15638C19.7763 9.66237 20.1576 10.0725 20.6292 10.0725C21.1002 10.0725 21.4816 9.66229 21.4816 9.15638C21.4812 8.65085 21.0997 8.2402 20.6292 8.2402Z" fill="black" fill-opacity="0.6"/>
</svg>
