<svg width="21" height="20" viewBox="0 0 21 20" fill="none" xmlns="http://www.w3.org/2000/svg">
<g clip-path="url(#clip0_12_71)">
<path d="M20.9607 10C20.9607 4.47715 16.4755 0 10.9428 0C5.40999 0 0.924805 4.47715 0.924805 10C0.924805 15.5228 5.40999 20 10.9428 20C16.4755 20 20.9607 15.5228 20.9607 10Z" fill="url(#paint0_linear_12_71)"/>
<path d="M19.2913 9.99986C19.2913 14.5948 15.5462 18.3332 10.943 18.3332C6.33981 18.3332 2.59473 14.5948 2.59473 9.99986C2.59473 5.40471 6.33981 1.66652 10.943 1.66652C15.5462 1.66652 19.2913 5.40471 19.2913 9.99986Z" fill="url(#paint1_linear_12_71)"/>
<path opacity="0.3" d="M6.56006 9.6875C6.56006 12.2763 8.66251 14.375 11.256 14.375C13.8495 14.375 15.9519 12.2763 15.9519 9.6875C15.9519 7.09867 13.8495 5 11.256 5C8.66251 5 6.56006 7.09867 6.56006 9.6875ZM14.2969 9.6875L11.8192 12.1608V10.8491H8.60641V8.52594H11.8192V7.21425L14.2969 9.6875Z" fill="black"/>
<path d="M6.24707 10C6.24707 12.5888 8.34953 14.6875 10.943 14.6875C13.5365 14.6875 15.6389 12.5888 15.6389 10C15.6389 7.41117 13.5365 5.3125 10.943 5.3125C8.34953 5.3125 6.24707 7.41117 6.24707 10ZM13.9839 10L11.5062 12.4733V11.1616H8.29343V8.83844H11.5062V7.52675L13.9839 10Z" fill="white"/>
</g>
<defs>
<linearGradient id="paint0_linear_12_71" x1="10.9428" y1="20" x2="10.9428" y2="1.05469e-07" gradientUnits="userSpaceOnUse">
<stop stop-color="#00AEEE"/>
<stop offset="1" stop-color="#0095DA"/>
</linearGradient>
<linearGradient id="paint1_linear_12_71" x1="10.943" y1="18.3332" x2="10.943" y2="1.66652" gradientUnits="userSpaceOnUse">
<stop stop-color="#0095DA"/>
<stop offset="1" stop-color="#00AEEE"/>
</linearGradient>
<clipPath id="clip0_12_71">
<rect width="20" height="20.0359" fill="white" transform="translate(0.924805 20) rotate(-90)"/>
</clipPath>
</defs>
</svg>
